<?xml version="1.0" encoding="utf-8"?>
<!-- Generator: Adobe Illustrator 30.3.0, SVG Export Plug-In . SVG Version: 9.03 Build 0)  -->
<svg version="1.1" id="Layer_1" xmlns="http://www.w3.org/2000/svg" xmlns:xlink="http://www.w3.org/1999/xlink" x="0px" y="0px"
	 viewBox="0 0 576 576" style="enable-background:new 0 0 576 576;" xml:space="preserve">
<style type="text/css">
	.st0{stroke:#000000;stroke-miterlimit:10;}
	.st1{fill:#FFFFFF;stroke:#FFFFFF;stroke-width:12.5;stroke-miterlimit:10;}
	.st2{fill:#FFFFFF;stroke:#FFFFFF;stroke-width:1.6;stroke-miterlimit:10;}
	.st3{fill:none;}
	.st4{fill:#FFFFFF;stroke:#FFFFFF;stroke-width:0.5;stroke-miterlimit:10;}
</style>
<rect x="-18" y="-18" class="st0" width="612" height="612"/>
<g>
	<g>
		<path class="st1" d="M288.4,480.39h-0.8c-0.2,0-0.36-0.16-0.36-0.36V25.77c0-0.2,0.16-0.36,0.36-0.36h0.8
			c0.2,0,0.36,0.16,0.36,0.36v454.26C288.76,480.23,288.6,480.39,288.4,480.39z"/>
		<g>
			<path class="st1" d="M27.7,252.96l-0.56-0.56c-0.14-0.14-0.14-0.37,0-0.51L187.49,91.54c0.14-0.14,0.37-0.14,0.51,0l0.56,0.56
				c0.14,0.14,0.14,0.37,0,0.51L28.21,252.96C28.07,253.1,27.84,253.1,27.7,252.96z"/>
			<path class="st1" d="M188.56,413.7l-0.56,0.56c-0.14,0.14-0.37,0.14-0.51,0L27.14,253.92c-0.14-0.14-0.14-0.37,0-0.51l0.56-0.56
				c0.14-0.14,0.37-0.14,0.51,0l160.35,160.35C188.7,413.33,188.7,413.56,188.56,413.7z"/>
		</g>
		<g>
			<path class="st1" d="M548.3,252.96l0.56-0.56c0.14-0.14,0.14-0.37,0-0.51L388.51,91.54c-0.14-0.14-0.37-0.14-0.51,0l-0.56,0.56
				c-0.14,0.14-0.14,0.37,0,0.51l160.35,160.35C547.93,253.1,548.16,253.1,548.3,252.96z"/>
			<path class="st1" d="M387.44,413.7l0.56,0.56c0.14,0.14,0.37,0.14,0.51,0l160.35-160.35c0.14-0.14,0.14-0.37,0-0.51l-0.56-0.56
				c-0.14-0.14-0.37-0.14-0.51,0L387.44,413.19C387.3,413.33,387.3,413.56,387.44,413.7z"/>
		</g>
	</g>
	<g>
		<g>
			<path class="st2" d="M211.09,532.95l-0.06-0.05c-0.01-0.01-0.01-0.03,0-0.05l16.06-13.91c0.01-0.01,0.04-0.01,0.05,0l0.06,0.05
				c0.01,0.01,0.01,0.03,0,0.05l-16.06,13.91C211.13,532.97,211.11,532.97,211.09,532.95z"/>
			<path class="st2" d="M227.2,546.9l-0.06,0.05c-0.01,0.01-0.04,0.01-0.05,0l-16.06-13.91c-0.01-0.01-0.01-0.03,0-0.05l0.06-0.05
				c0.01-0.01,0.04-0.01,0.05,0l16.06,13.91C227.21,546.87,227.21,546.89,227.2,546.9z"/>
		</g>
		<g>
			<rect x="233.39" y="515.31" class="st3" width="145.1" height="35.28"/>
			<path class="st4" d="M247.45,548.42c-1.66,0-3.19-0.37-4.59-1.1c-1.41-0.74-2.62-1.78-3.63-3.14s-1.8-2.98-2.37-4.89
				c-0.56-1.91-0.84-4.04-0.84-6.38s0.28-4.47,0.84-6.36s1.35-3.5,2.37-4.83s2.23-2.35,3.63-3.07s2.94-1.08,4.59-1.08
				c1.66,0,3.19,0.36,4.59,1.08c1.41,0.72,2.62,1.74,3.63,3.07c1.02,1.32,1.8,2.93,2.37,4.83s0.84,4.01,0.84,6.36
				s-0.28,4.47-0.84,6.38c-0.56,1.91-1.35,3.54-2.37,4.89c-1.02,1.35-2.23,2.4-3.63,3.14C250.64,548.05,249.11,548.42,247.45,548.42
				z M247.45,547.07c1.47,0,2.8-0.34,4.01-1.01c1.2-0.68,2.24-1.63,3.12-2.86c0.87-1.23,1.55-2.72,2.02-4.47
				c0.47-1.74,0.7-3.68,0.7-5.82c0-2.13-0.23-4.07-0.7-5.8c-0.47-1.73-1.14-3.2-2.02-4.42c-0.88-1.22-1.91-2.15-3.12-2.8
				c-1.2-0.65-2.54-0.97-4.01-0.97c-1.47,0-2.81,0.32-4.01,0.97c-1.2,0.65-2.24,1.58-3.12,2.8c-0.88,1.22-1.55,2.69-2.02,4.42
				c-0.47,1.73-0.7,3.66-0.7,5.8c0,2.14,0.23,4.08,0.7,5.82c0.47,1.75,1.14,3.23,2.02,4.47c0.87,1.23,1.91,2.19,3.12,2.86
				C244.65,546.73,245.98,547.07,247.45,547.07z"/>
			<path class="st4" d="M267.33,547.88v-29.77h8.53c1.53,0,2.91,0.14,4.13,0.43c1.22,0.29,2.26,0.74,3.12,1.35
				c0.86,0.62,1.52,1.41,1.99,2.37c0.47,0.96,0.7,2.14,0.7,3.52c0,2.38-0.74,4.23-2.23,5.57c-1.48,1.34-3.52,2.13-6.12,2.37
				l8.81,14.17h-1.78l-8.72-14.08h-6.94v14.08H267.33z M268.83,532.54h6.47c2.88,0,5.08-0.55,6.61-1.65c1.53-1.1,2.3-2.8,2.3-5.12
				c0-2.35-0.77-4-2.3-4.96c-1.53-0.96-3.73-1.44-6.61-1.44h-6.47V532.54z"/>
			<path class="st4" d="M302.96,547.88v-28.51h-10.97v-1.26h23.44v1.26h-10.97v28.51H302.96z"/>
			<path class="st4" d="M323.02,547.88v-1.26h8.06v-27.25h-8.06v-1.26h17.63v1.26h-8.06v27.25h8.06v1.26H323.02z"/>
			<path class="st4" d="M360.43,548.42c-2.41,0-4.5-0.42-6.28-1.26s-3.28-1.92-4.5-3.25l1.03-0.99c1.19,1.26,2.62,2.27,4.29,3.02
				s3.49,1.13,5.46,1.13c1.31,0,2.5-0.16,3.56-0.47c1.06-0.32,1.97-0.75,2.72-1.31s1.33-1.23,1.73-2.01
				c0.41-0.78,0.61-1.65,0.61-2.62c0-0.99-0.16-1.83-0.49-2.5s-0.77-1.26-1.34-1.76c-0.56-0.5-1.22-0.92-1.97-1.29
				c-0.75-0.36-1.55-0.71-2.39-1.04l-4.78-2.08c-0.72-0.27-1.47-0.6-2.25-0.99c-0.78-0.39-1.51-0.86-2.18-1.42s-1.23-1.23-1.66-2.03
				c-0.44-0.8-0.66-1.75-0.66-2.86c0-1.05,0.23-2.01,0.7-2.89c0.47-0.87,1.11-1.62,1.92-2.25c0.81-0.63,1.78-1.12,2.91-1.47
				c1.13-0.34,2.34-0.52,3.66-0.52c1.97,0,3.71,0.35,5.23,1.06c1.52,0.71,2.74,1.53,3.68,2.46l-0.94,0.99
				c-0.94-0.96-2.08-1.73-3.42-2.3c-1.34-0.57-2.86-0.86-4.55-0.86c-2.31,0-4.17,0.52-5.58,1.56c-1.41,1.04-2.11,2.41-2.11,4.13
				c0,0.93,0.2,1.72,0.59,2.37s0.88,1.2,1.48,1.67c0.59,0.47,1.23,0.86,1.92,1.17s1.33,0.59,1.92,0.83l4.78,2.08
				c0.91,0.36,1.78,0.76,2.62,1.2s1.59,0.96,2.25,1.56c0.66,0.6,1.18,1.32,1.57,2.14c0.39,0.83,0.59,1.81,0.59,2.95
				c0,1.14-0.24,2.19-0.73,3.14c-0.49,0.95-1.17,1.77-2.06,2.48s-1.95,1.26-3.19,1.65C363.34,548.23,361.96,548.42,360.43,548.42z"
				/>
		</g>
	</g>
</g>
<g>
</g>
<g>
</g>
<g>
</g>
<g>
</g>
<g>
</g>
<g>
</g>
</svg>
